<svg width="773" height="515" viewBox="0 0 773 515" fill="none" xmlns="http://www.w3.org/2000/svg">
<g clip-path="url(#clip0_2058_3)">
<path d="M707.642 714.475C667.749 714.475 644.092 694.06 642.281 664.659H680.422C680.422 674.46 685.853 687.506 709.453 688.316C725.808 688.316 734.859 678.518 734.859 671.15C733.047 659.726 718.504 658.915 704.019 656.419C687.664 654.047 674.991 650.738 665.878 646.68C653.205 640.126 645.9 626.205 645.9 611.536C645.9 585.376 667.749 564.961 705.831 564.961C742.163 564.961 765.761 583.756 767.507 612.346H731.239C731.239 605.039 729.428 592.744 707.639 592.744C693.095 592.744 684.044 595.178 682.233 605.789C682.233 620.524 713.073 619.71 736.67 625.392C758.456 631.135 773 644.994 773 664.659C773 700.617 743.972 714.475 707.642 714.475ZM12.584 473.227L137.813 400.499L204.983 515.742H36.1814" fill="black"/>
<path d="M-45.538 639.563C-45.538 662.41 -25.5631 681.202 -3.83954 681.202C19.8204 681.202 37.9243 662.41 37.9243 639.563C37.9243 617.527 19.8204 597.924 -3.83954 597.924C-25.5631 597.924 -45.538 617.527 -45.538 639.563ZM-5.64794 714.726C-45.5408 714.726 -80 681.202 -80 639.563C-80 597.924 -45.538 565.214 -5.64794 565.214C10.7073 565.214 25.2513 569.334 37.9243 578.259V566.835H74.2573V711.416H37.9272V702.428C27.0654 710.606 10.7073 714.726 -5.64794 714.726ZM479.052 515.708L304.82 211.814L430.046 138.275L647.853 515.708M121.452 639.563C121.452 662.41 139.621 681.202 163.216 681.202C184.939 681.202 204.98 662.41 204.98 639.563C204.98 617.527 184.939 597.924 163.216 597.924C139.619 597.924 121.452 617.527 121.452 639.563ZM161.405 714.726C119.641 714.726 86.9929 681.202 86.9929 639.563C86.9929 597.924 119.641 565.214 161.405 565.214C177.697 565.214 192.244 569.334 204.98 578.259V517.018H241.25V711.416H204.977V702.428C192.241 710.606 177.7 714.726 161.405 714.726ZM159.616 343.338L286.654 271.485L426.429 515.699H293.899V551.657H257.625V515.699M749.465 552.788C740.352 552.788 731.301 544.611 731.301 534.809C731.301 525.008 740.352 516.831 749.465 516.831C760.327 516.831 767.634 525.011 767.634 534.809C767.634 544.608 760.327 552.788 749.465 552.788ZM749.465 519.33C740.352 519.33 734.921 526.632 734.921 534.809C734.921 542.987 740.352 550.354 749.465 550.354C758.519 550.354 763.949 542.99 763.949 534.809C763.949 526.629 758.519 519.33 749.465 519.33Z" fill="black"/>
</g>
<defs>
<clipPath id="clip0_2058_3">
<rect width="853" height="853" fill="white" transform="translate(-80)"/>
</clipPath>
</defs>
</svg>
