 <svg width="493.99999999999994" height="119.22050418891772" viewBox="0 0 200 48.2674106028007" class="looka-1j8o68f" {...props}><defs id="SvgjsDefs1726"></defs><g id="SvgjsG1727" transform="matrix(3.226430976120172,0,0,3.226430976120172,-5.226822427525489,-16.13215334211868)" fill="#000"><path d="M11.1 14.1 l3.02 4.62 q0.22 0.36 0.02 0.72 q-0.08 0.16 -0.25 0.26 t-0.35 0.1 l-1.82 0 q-0.18 0 -0.34 -0.09 t-0.24 -0.23 l-3.04 -4.82 l-3.56 0 l0 4.44 q0 0.28 -0.21 0.49 t-0.49 0.21 l-1.52 0 q-0.28 0 -0.49 -0.21 t-0.21 -0.49 l0 -6.58 q0 -0.28 0.21 -0.49 t0.49 -0.21 l6.16 0 q1.76 0 2.34 -1 q0.2 -0.32 0.2 -0.92 q0 -0.94 -0.62 -1.48 q-0.64 -0.58 -1.84 -0.58 l-6.24 0 q-0.28 0 -0.49 -0.21 t-0.21 -0.49 l0 -1.44 q0 -0.28 0.21 -0.49 t0.49 -0.21 l6.42 0 q2.34 0 3.74 1.32 q1.46 1.32 1.46 3.58 q0 1.46 -0.64 2.49 t-1.86 1.57 z M28.887999999999998 16.96 q0.3 0 0.5 0.21 t0.2 0.51 l0 1.46 q0 0.28 -0.2 0.49 t-0.5 0.21 l-9.88 0 q-0.28 0 -0.49 -0.21 t-0.21 -0.49 l0 -1.46 q0 -0.3 0.21 -0.51 t0.49 -0.21 l9.88 0 z M19.008 13.86 q-0.28 0 -0.49 -0.21 t-0.21 -0.49 l0 -1.5 q0 -0.28 0.21 -0.49 t0.49 -0.21 l8.98 0 q0.3 0 0.51 0.21 t0.21 0.49 l0 1.5 q0 0.28 -0.21 0.49 t-0.51 0.21 l-8.98 0 z M28.887999999999998 5 q0.3 0 0.5 0.21 t0.2 0.49 l0 1.46 q0 0.3 -0.2 0.51 t-0.5 0.21 l-9.88 0 q-0.28 0 -0.49 -0.21 t-0.21 -0.51 l0 -1.46 q0 -0.28 0.21 -0.49 t0.49 -0.21 l9.88 0 z M42.716 5.52 q1.22 0.46 2.2 1.48 q2.1 2.12 2.1 5.41 t-2.1 5.43 q-0.98 1.02 -2.2 1.48 q-1.26 0.52 -2.58 0.52 l-5.66 0 q-0.28 0 -0.49 -0.21 t-0.21 -0.49 l0 -1.44 q0 -0.3 0.21 -0.51 t0.49 -0.21 l5.6 0 q1.78 0 2.89 -1.3 t1.11 -3.26 t-1.11 -3.26 t-2.89 -1.3 l-5.6 0 q-0.28 0 -0.49 -0.21 t-0.21 -0.51 l0 -1.44 q0 -0.28 0.21 -0.49 t0.49 -0.21 l5.66 0 q1.32 0 2.58 0.52 z M63.464000000000006 18.82 q0.12 0.16 0.14 0.36 t-0.06 0.38 t-0.26 0.29 t-0.38 0.11 l-1.94 0 q-0.36 0 -0.58 -0.28 l-3.82 -5.06 l-3.82 5.06 q-0.22 0.28 -0.56 0.28 l-1.96 0 q-0.2 0 -0.37 -0.1 t-0.25 -0.28 q-0.2 -0.42 0.06 -0.76 l10.36 -13.54 q0.22 -0.28 0.56 -0.28 l1.94 0 q0.2 0 0.37 0.11 t0.27 0.29 t0.08 0.38 t-0.16 0.36 l-4.7 6.12 z M52.92400000000001 9.88 l-2.88 -3.74 q-0.14 -0.16 -0.16 -0.36 t0.08 -0.38 t0.27 -0.29 t0.37 -0.11 l1.94 0 q0.16 0 0.32 0.07 t0.24 0.21 l2.82 3.74 q0.28 0.34 0.08 0.76 q-0.08 0.18 -0.25 0.28 t-0.39 0.1 l-1.88 0 q-0.16 0 -0.32 -0.07 t-0.24 -0.21 z"></path></g></svg>