<svg width="800" height="802" viewBox="0 0 1007 802" fill="none" xmlns="http://www.w3.org/2000/svg">
<path fill-rule="evenodd" clip-rule="evenodd" d="M4.56243 426.549C-34.9004 545.356 -62.6769 684.12 -30.2458 766.306C-18.053 797.232 2.67406 820.149 34.5175 830.971C80.3542 846.567 121.957 941.592 159.213 926.58C213.651 904.629 258.791 860.806 294.241 826.755C353.948 769.422 1003 8.78962 1003 8.78962C1009.06 1.90652 1005.72 -2.26041 997.167 3.95737C993.718 6.47023 233.869 583.302 233.869 583.302C219.553 594.419 203.817 603.574 187.076 610.523C121.641 637.466 48.5344 624.687 17.9451 547.772C5.97389 517.677 0.506783 477.754 4.56243 426.549Z" fill="black"/>
</svg>
